<?xml version="1.0" encoding="UTF-8"?>
<svg version="1.1" xmlns="http://www.w3.org/2000/svg" width="560" height="560">
<path d="M0 0 C184.8 0 369.6 0 560 0 C560 184.8 560 369.6 560 560 C375.2 560 190.4 560 0 560 C0 375.2 0 190.4 0 0 Z " fill="#B2B2B2" transform="translate(0,0)"/>
<path d="M0 0 C2.128407 1.22749398 3.61463747 2.42447332 5.21484375 4.27734375 C4.86421875 5.06109375 4.51359375 5.84484375 4.15234375 6.65234375 C3.84296875 7.51859375 3.53359375 8.38484375 3.21484375 9.27734375 C3.54484375 9.93734375 3.87484375 10.59734375 4.21484375 11.27734375 C2.97734375 11.46296875 1.73984375 11.64859375 0.46484375 11.83984375 C-5.37312523 13.15429329 -9.95225467 16.04486669 -14.99121094 19.1796875 C-16.96992626 20.39039845 -18.97133115 21.55534145 -20.98046875 22.71484375 C-35.38024169 31.02878935 -48.32679 40.39677589 -60.7578125 51.48046875 C-62.22672359 52.7823938 -63.71660795 54.06077985 -65.21875 55.32421875 C-70.64572068 59.9829881 -74.85334261 64.76961071 -78.9140625 70.65234375 C-80.62318123 73.05010531 -82.41766959 75.17731994 -84.41015625 77.33984375 C-87.51326152 80.79938679 -89.81682639 84.43548809 -92.12890625 88.45703125 C-93.68471837 91.1063151 -95.32399503 93.68575319 -97.00415039 96.25756836 C-109.28362996 115.05671247 -119.69399253 134.60685742 -125.78515625 156.27734375 C-126.49262328 158.38180184 -127.20092866 160.48597833 -127.91015625 162.58984375 C-132.00530689 176.3735215 -133.10106833 189.88831109 -133.25793457 204.19259644 C-133.27582759 205.76832593 -133.30123957 207.34399127 -133.33483887 208.91946411 C-133.55782971 220.76877435 -132.95509836 233.3066904 -124.28515625 242.40234375 C-123.14758292 243.39503746 -121.97828474 244.35216361 -120.78515625 245.27734375 C-120.07230469 245.93089844 -119.35945313 246.58445312 -118.625 247.2578125 C-114.9142883 249.89665425 -111.16308243 251.10856695 -106.84765625 252.46484375 C-106.06197266 252.72458984 -105.27628906 252.98433594 -104.46679688 253.25195312 C-86.59476109 259.0398007 -63.49414486 258.5695485 -45.78515625 252.27734375 C-44.78097656 251.95378906 -43.77679688 251.63023437 -42.7421875 251.296875 C-36.46485466 249.17556942 -30.65215887 246.33067038 -24.78515625 243.27734375 C-23.55996232 242.67564585 -22.33469446 242.07409848 -21.109375 241.47265625 C-16.23520904 239.03927229 -11.51065906 236.36079978 -6.78515625 233.65234375 C-5.86524902 233.12600342 -4.9453418 232.59966309 -3.99755859 232.05737305 C2.92154669 228.07435521 9.70893658 223.91490638 16.453125 219.64453125 C22.03158419 216.11627501 27.70813178 212.7516863 33.37792969 209.37304688 C35.78161936 207.93926707 38.18155486 206.49928992 40.58081055 205.05810547 C41.8080905 204.32150721 43.03613465 203.5861809 44.26489258 202.85205078 C47.74454179 200.77127113 51.20807021 198.66772968 54.65625 196.53515625 C64.34118281 190.58081236 74.20128945 185.03704965 84.27734375 179.77734375 C85.39463867 179.18993408 86.51193359 178.60252441 87.66308594 177.99731445 C94.37476797 174.53588405 101.07756606 171.72457907 108.21484375 169.27734375 C110.19665641 168.4923244 112.17632086 167.70182504 114.15234375 166.90234375 C136.86243838 158.25596224 158.92676591 155.08764183 183.15234375 154.83984375 C184.17261658 154.82138397 184.17261658 154.82138397 185.21350098 154.80255127 C197.03041538 154.62313815 205.33491326 156.80989033 214.90234375 163.65234375 C215.45269287 164.04446045 216.00304199 164.43657715 216.57006836 164.84057617 C237.18613175 179.6942534 245.31462801 198.269309 249.31640625 222.84765625 C251.71892179 238.34201698 253.36704444 253.56586529 253.3828125 269.26171875 C253.3861409 270.44276184 253.3894693 271.62380493 253.39289856 272.84063721 C253.39792056 275.3144899 253.40030836 277.78834925 253.40014648 280.26220703 C253.40234629 284.0316882 253.42058883 287.80088238 253.43945312 291.5703125 C253.44238546 293.98828026 253.44437133 296.40624939 253.4453125 298.82421875 C253.45249802 299.94004333 253.45968353 301.05586792 253.46708679 302.20550537 C253.40169496 324.70329194 242.45978727 346.14940052 229.109375 363.765625 C227.24371766 366.23906349 225.50936787 368.77167005 223.77734375 371.33984375 C220.71743497 375.74499717 217.29617116 379.6611585 213.62109375 383.5625 C211.60844216 385.83326762 209.77221257 388.12978392 207.93359375 390.5390625 C204.27611104 395.28426328 200.32517818 399.672909 196.21484375 404.02734375 C195.54195313 404.75566406 194.8690625 405.48398437 194.17578125 406.234375 C190.62791924 410.00825911 187.15761607 413.13915568 182.8581543 416.01293945 C181.03620419 417.4147935 179.73753468 418.92262498 178.296875 420.7109375 C175.01718152 424.72500421 171.1745058 427.45313232 166.90234375 430.33984375 C166.14687256 430.86078613 165.39140137 431.38172852 164.61303711 431.91845703 C162.48663271 433.38097593 160.35203452 434.83065465 158.21484375 436.27734375 C157.30476563 436.90253906 156.3946875 437.52773438 155.45703125 438.171875 C151.88615944 440.59725209 148.25477989 442.851002 144.52734375 445.02734375 C135.63423549 450.29938921 127.37950372 456.61607508 119.140625 462.84375 C113.04228624 467.38348697 106.87961492 471.6182537 100.21484375 475.27734375 C99.44140625 475.74269531 98.66796875 476.20804687 97.87109375 476.6875 C95.1177894 478.33543363 92.33590662 479.91304571 89.52734375 481.46484375 C88.57472656 481.99464844 87.62210938 482.52445312 86.640625 483.0703125 C84.21484375 484.27734375 84.21484375 484.27734375 82.21484375 484.27734375 C82.21484375 484.93734375 82.21484375 485.59734375 82.21484375 486.27734375 C80.7890625 487.4609375 80.7890625 487.4609375 78.90234375 488.71484375 C76.94699196 490.02251088 75.28726339 491.20071791 73.66796875 492.9140625 C72.21484375 494.27734375 72.21484375 494.27734375 69.27734375 494.65234375 C65.96499702 494.24675027 64.63154078 493.50814101 62.21484375 491.27734375 C62.87484375 490.61734375 63.53484375 489.95734375 64.21484375 489.27734375 C63.89632605 487.16913578 63.89632605 487.16913578 63.21484375 485.27734375 C64.57609375 484.41109375 64.57609375 484.41109375 65.96484375 483.52734375 C69.12208793 481.49545968 69.12208793 481.49545968 71.08203125 479.359375 C76.45210938 474.11715588 83.51815301 470.54402216 90.21484375 467.27734375 C90.83359375 466.80296875 91.45234375 466.32859375 92.08984375 465.83984375 C94.00161873 464.43412685 95.70593847 463.53027923 97.83984375 462.52734375 C104.62964912 459.22078426 110.56565635 454.55680259 116.52734375 449.96484375 C119.32436741 447.82461107 121.93365025 446.56993513 125.21484375 445.27734375 C125.54484375 444.28734375 125.87484375 443.29734375 126.21484375 442.27734375 C129.8622158 439.79713076 133.6300734 437.61492856 137.44921875 435.41015625 C157.47163948 424.27676839 157.47163948 424.27676839 173.96484375 408.96484375 C175.96934935 406.57057317 177.59669318 405.20090809 180.08984375 403.40234375 C189.46026549 396.32798561 197.57402828 386.84918102 204.56640625 377.4609375 C206.59891422 374.7685869 208.74866428 372.18610784 210.90234375 369.58984375 C213.90897692 365.93025489 216.64373984 362.25840787 219.21484375 358.27734375 C220.52351381 356.50367816 221.83648457 354.73318239 223.15234375 352.96484375 C226.60139692 348.23434939 229.54482255 343.47957861 232.21484375 338.27734375 C232.69695312 337.375 233.1790625 336.47265625 233.67578125 335.54296875 C235.26834087 332.48719445 236.7465811 329.39469069 238.21484375 326.27734375 C238.66738525 325.36130371 239.11992676 324.44526367 239.58618164 323.50146484 C244.25989973 312.57457932 243.87208353 301.75227621 243.7019043 290.0480957 C243.65269524 286.61437028 243.64041979 283.18209285 243.63476562 279.74804688 C243.56895672 266.81274652 242.9453016 254.09806126 241.21484375 241.27734375 C241.05846436 240.10018799 240.90208496 238.92303223 240.7409668 237.71020508 C237.34340494 210.51785794 237.34340494 210.51785794 225.02734375 186.56640625 C223.21484375 184.27734375 223.21484375 184.27734375 223.21484375 182.27734375 C222.16296875 181.93703125 222.16296875 181.93703125 221.08984375 181.58984375 C217.50931774 179.95525579 215.18666973 177.86154025 212.21484375 175.27734375 C211.22484375 174.61734375 210.23484375 173.95734375 209.21484375 173.27734375 C209.21484375 172.61734375 209.21484375 171.95734375 209.21484375 171.27734375 C180.76980278 159.56467982 143.05021694 168.73567245 115.21484375 179.27734375 C113.13178363 180.24867074 111.107977 181.28377238 109.08203125 182.36791992 C107.03971331 183.36264198 105.01298631 184.03552223 102.84375 184.70703125 C97.63080642 186.36544148 92.95929491 188.81722838 88.15234375 191.40234375 C87.23984863 191.88735352 86.32735352 192.37236328 85.38720703 192.87207031 C74.44090845 198.71545361 63.58948733 204.63988732 53.1796875 211.40234375 C49.44968618 213.76123786 45.65030863 215.98903242 41.83984375 218.21484375 C36.93306303 221.08278261 32.0457478 223.96994366 27.21484375 226.96484375 C16.62189877 233.52365332 5.92017783 239.90416481 -4.78515625 246.27734375 C-5.55730469 246.73802246 -6.32945312 247.19870117 -7.125 247.67333984 C-13.43517955 251.42341536 -19.65966337 254.92426569 -26.6015625 257.390625 C-28.87459278 258.24200566 -28.87459278 258.24200566 -31.11328125 259.72265625 C-34.30299575 261.57865972 -37.46961069 262.68184216 -40.97265625 263.83984375 C-42.20371094 264.25363281 -43.43476563 264.66742188 -44.703125 265.09375 C-54.0517272 267.90474008 -63.04172485 268.65015987 -72.75976562 268.64794922 C-74.88624958 268.65229489 -77.01060353 268.68864891 -79.13671875 268.7265625 C-98.41712191 268.88362874 -116.49410913 263.59759304 -130.78515625 250.27734375 C-131.46707031 249.66117188 -132.14898437 249.045 -132.8515625 248.41015625 C-140.98926683 240.21972381 -143.32131721 228.96352353 -143.43643188 217.81867981 C-143.42807628 215.57495073 -143.39061489 213.3331593 -143.34765625 211.08984375 C-143.33759552 209.92503479 -143.33759552 209.92503479 -143.32733154 208.73669434 C-143.13921683 187.54315929 -140.17015709 167.00751866 -133.41015625 146.90234375 C-133.11882812 146.020625 -132.8275 145.13890625 -132.52734375 144.23046875 C-125.8488282 124.25350557 -116.80486168 105.40392107 -104.93652344 88.00488281 C-103.38427876 85.67585751 -101.98838099 83.26797398 -100.59765625 80.83984375 C-97.48901408 75.57563882 -93.673792 70.97885816 -89.78515625 66.27734375 C-88.42873761 64.57079793 -87.07455003 62.8624763 -85.72265625 61.15234375 C-76.23037418 49.3376781 -65.60476847 39.75747586 -53.78515625 30.27734375 C-53.04652344 29.67019531 -52.30789062 29.06304687 -51.546875 28.4375 C-45.87213541 23.86243572 -39.82030502 20.07596075 -33.56494141 16.34521484 C-31.73778998 15.24892399 -29.92288685 14.13431571 -28.109375 13.015625 C-21.89308916 9.19762756 -15.60979476 5.50122988 -9.16015625 2.08984375 C-8.05414063 1.49816406 -6.948125 0.90648437 -5.80859375 0.296875 C-2.78515625 -0.72265625 -2.78515625 -0.72265625 0 0 Z " fill="#020200" transform="translate(210.78515625,11.72265625)"/>
<path d="M0 0 C4.32046898 1.41680244 7.00461199 3.53763785 10.3125 6.625 C11.19550781 7.44226563 12.07851563 8.25953125 12.98828125 9.1015625 C13.65214844 9.72804687 14.31601562 10.35453125 15 11 C14.67 11.66 14.34 12.32 14 13 C11.95880212 11.38405168 9.95927063 9.7143618 8 8 C8 7.34 8 6.68 8 6 C7.236875 5.71125 6.47375 5.4225 5.6875 5.125 C3 4 3 4 0 2 C0 1.34 0 0.68 0 0 Z " fill="#0A0F00" transform="translate(422,174)"/>
<path d="M0 0 C5.28 1.65 10.56 3.3 16 5 C15.01 5.33 14.02 5.66 13 6 C13 6.66 13 7.32 13 8 C12.34 8 11.68 8 11 8 C10.67 7.34 10.34 6.68 10 6 C7.65961814 4.86897474 7.65961814 4.86897474 4.9375 3.875 C4.01839844 3.52179688 3.09929687 3.16859375 2.15234375 2.8046875 C1.44207031 2.53914063 0.73179688 2.27359375 0 2 C0 1.34 0 0.68 0 0 Z " fill="#080D00" transform="translate(97,262)"/>
<path d="M0 0 C3.89917968 1.61537444 6.71293772 4.27924873 9.75 7.125 C10.25660156 7.59292969 10.76320313 8.06085938 11.28515625 8.54296875 C12.52719141 9.69126541 13.76411494 10.84508672 15 12 C14.67 12.66 14.34 13.32 14 14 C12.03804598 12.23304141 10.08040373 10.46168211 8.125 8.6875 C7.56941406 8.18798828 7.01382813 7.68847656 6.44140625 7.17382812 C3.93211977 4.8912844 1.89093222 2.83639832 0 0 Z " fill="#090E00" transform="translate(81,250)"/>
</svg>
